<?xml version="1.0" standalone="no"?>
<!DOCTYPE svg PUBLIC "-//W3C//DTD SVG 20010904//EN"
 "http://www.w3.org/TR/2001/REC-SVG-20010904/DTD/svg10.dtd">
<svg version="1.0" xmlns="http://www.w3.org/2000/svg"
 width="500.000000pt" height="500.000000pt" viewBox="0 0 500.000000 500.000000"
 preserveAspectRatio="xMidYMid meet">

<g transform="translate(0.000000,500.000000) scale(0.100000,-0.100000)"
fill="#000000" stroke="none">
<path d="M2307 3683 c17 -2 43 -15 57 -28 25 -23 26 -23 36 -5 19 35 12 40
-57 38 -38 0 -54 -3 -36 -5z"/>
<path d="M3240 3685 c0 -4 7 -19 14 -34 39 -74 28 -201 -26 -302 -62 -118
-157 -193 -403 -317 -78 -39 -152 -84 -165 -99 l-25 -27 29 18 c15 10 92 42
170 71 77 29 164 63 191 76 170 75 294 179 353 297 34 71 37 82 37 166 0 68
-4 99 -18 124 -17 31 -19 32 -87 32 -39 0 -70 -2 -70 -5z"/>
<path d="M2631 2892 c-2 -27 20 -51 77 -86 32 -19 78 -51 102 -70 27 -21 56
-36 73 -36 23 0 27 -4 27 -30 0 -21 45 -97 164 -277 90 -136 178 -261 196
-278 l31 -30 137 -2 137 -2 -45 17 c-117 44 -184 114 -358 375 -154 232 -198
270 -377 326 -114 36 -143 51 -154 80 -5 14 -10 20 -10 13z"/>
</g>
</svg>
